<svg width="1047" height="238" viewBox="0 0 1047 238" fill="none" xmlns="http://www.w3.org/2000/svg">
<path d="M391.944 50.1032V190.835H366.243L305.017 102.259H303.986V190.835H274.232V50.1032H300.344L361.09 138.61H362.327V50.1032H391.944ZM463.667 192.897C452.993 192.897 443.762 190.629 435.974 186.094C428.232 181.513 422.253 175.145 418.039 166.991C413.824 158.79 411.717 149.284 411.717 138.473C411.717 127.57 413.824 118.041 418.039 109.887C422.253 101.687 428.232 95.3189 435.974 90.7835C443.762 86.2024 452.993 83.9119 463.667 83.9119C474.341 83.9119 483.549 86.2024 491.291 90.7835C499.079 95.3189 505.08 101.687 509.295 109.887C513.509 118.041 515.617 127.57 515.617 138.473C515.617 149.284 513.509 158.79 509.295 166.991C505.08 175.145 499.079 181.513 491.291 186.094C483.549 190.629 474.341 192.897 463.667 192.897ZM463.804 170.22C468.66 170.22 472.714 168.846 475.967 166.097C479.22 163.303 481.671 159.5 483.32 154.69C485.015 149.88 485.862 144.406 485.862 138.267C485.862 132.128 485.015 126.654 483.32 121.844C481.671 117.033 479.22 113.231 475.967 110.437C472.714 107.642 468.66 106.245 463.804 106.245C458.902 106.245 454.779 107.642 451.435 110.437C448.137 113.231 445.64 117.033 443.945 121.844C442.296 126.654 441.471 132.128 441.471 138.267C441.471 144.406 442.296 149.88 443.945 154.69C445.64 159.5 448.137 163.303 451.435 166.097C454.779 168.846 458.902 170.22 463.804 170.22ZM534.651 190.835V85.2862H562.55V103.908H563.787C565.986 97.724 569.651 92.8451 574.782 89.2718C579.913 85.6985 586.051 83.9119 593.198 83.9119C600.436 83.9119 606.598 85.7214 611.683 89.3405C616.768 92.9138 620.158 97.7698 621.853 103.908H622.952C625.105 97.8614 628.999 93.0283 634.634 89.4092C640.315 85.7443 647.026 83.9119 654.768 83.9119C664.618 83.9119 672.612 87.0499 678.75 93.3261C684.935 99.5564 688.027 108.398 688.027 119.851V190.835H658.823V125.623C658.823 119.759 657.265 115.361 654.15 112.429C651.035 109.497 647.141 108.031 642.468 108.031C637.154 108.031 633.008 109.726 630.03 113.117C627.052 116.461 625.564 120.882 625.564 126.379V190.835H597.184V125.005C597.184 119.828 595.695 115.705 592.717 112.636C589.785 109.566 585.914 108.031 581.104 108.031C577.851 108.031 574.919 108.856 572.308 110.505C569.743 112.109 567.704 114.376 566.192 117.308C564.68 120.194 563.925 123.584 563.925 127.478V190.835H534.651ZM741.248 192.828C734.514 192.828 728.513 191.66 723.245 189.323C717.976 186.941 713.807 183.437 710.738 178.81C707.715 174.137 706.203 168.319 706.203 161.356C706.203 155.492 707.279 150.567 709.432 146.582C711.586 142.596 714.518 139.389 718.228 136.961C721.939 134.533 726.154 132.701 730.872 131.464C735.636 130.227 740.63 129.357 745.852 128.853C751.991 128.211 756.939 127.616 760.695 127.066C764.452 126.47 767.178 125.6 768.873 124.455C770.568 123.31 771.415 121.615 771.415 119.37V118.957C771.415 114.605 770.041 111.238 767.292 108.856C764.589 106.474 760.741 105.283 755.748 105.283C750.479 105.283 746.288 106.451 743.172 108.787C740.057 111.078 737.996 113.964 736.988 117.446L709.913 115.247C711.288 108.833 713.991 103.29 718.022 98.6173C722.053 93.8987 727.253 90.2796 733.621 87.76C740.034 85.1946 747.456 83.9119 755.885 83.9119C761.749 83.9119 767.361 84.599 772.721 85.9734C778.126 87.3477 782.914 89.4779 787.083 92.364C791.297 95.2501 794.618 98.9609 797.046 103.496C799.474 107.986 800.688 113.368 800.688 119.645V190.835H772.927V176.199H772.102C770.407 179.497 768.14 182.406 765.299 184.926C762.459 187.399 759.046 189.346 755.06 190.767C751.075 192.141 746.471 192.828 741.248 192.828ZM749.632 172.625C753.938 172.625 757.74 171.778 761.039 170.083C764.337 168.342 766.926 166.006 768.804 163.074C770.682 160.142 771.621 156.82 771.621 153.11V141.909C770.705 142.504 769.445 143.054 767.842 143.558C766.284 144.016 764.52 144.451 762.551 144.864C760.581 145.23 758.611 145.574 756.641 145.894C754.671 146.169 752.884 146.421 751.281 146.65C747.845 147.154 744.845 147.956 742.279 149.055C739.714 150.155 737.721 151.644 736.301 153.522C734.881 155.354 734.171 157.645 734.171 160.394C734.171 164.379 735.614 167.426 738.5 169.533C741.432 171.595 745.142 172.625 749.632 172.625ZM862.293 192.553C854.276 192.553 847.015 190.492 840.51 186.369C834.05 182.2 828.92 176.084 825.117 168.021C821.361 159.913 819.482 149.972 819.482 138.198C819.482 126.104 821.429 116.048 825.323 108.031C829.217 99.9687 834.394 93.9445 840.853 89.959C847.359 85.9276 854.482 83.9119 862.224 83.9119C868.134 83.9119 873.059 84.9197 876.998 86.9354C880.984 88.9053 884.191 91.3791 886.619 94.3568C889.093 97.2887 890.971 100.175 892.254 103.015H893.147V50.1032H922.352V190.835H893.491V173.931H892.254C890.879 176.863 888.932 179.772 886.413 182.658C883.939 185.498 880.709 187.858 876.724 189.736C872.784 191.614 867.974 192.553 862.293 192.553ZM871.57 169.258C876.288 169.258 880.274 167.975 883.527 165.41C886.825 162.799 889.345 159.157 891.085 154.484C892.872 149.811 893.765 144.337 893.765 138.061C893.765 131.785 892.895 126.333 891.154 121.706C889.413 117.079 886.894 113.506 883.595 110.986C880.297 108.467 876.288 107.207 871.57 107.207C866.76 107.207 862.705 108.512 859.407 111.124C856.109 113.735 853.612 117.354 851.917 121.981C850.222 126.608 849.374 131.968 849.374 138.061C849.374 144.199 850.222 149.628 851.917 154.347C853.658 159.019 856.154 162.684 859.407 165.341C862.705 167.953 866.76 169.258 871.57 169.258ZM976.518 192.828C969.783 192.828 963.782 191.66 958.514 189.323C953.246 186.941 949.077 183.437 946.007 178.81C942.984 174.137 941.472 168.319 941.472 161.356C941.472 155.492 942.549 150.567 944.702 146.582C946.855 142.596 949.787 139.389 953.497 136.961C957.208 134.533 961.423 132.701 966.141 131.464C970.906 130.227 975.899 129.357 981.122 128.853C987.26 128.211 992.208 127.616 995.964 127.066C999.721 126.47 1002.45 125.6 1004.14 124.455C1005.84 123.31 1006.68 121.615 1006.68 119.37V118.957C1006.68 114.605 1005.31 111.238 1002.56 108.856C999.858 106.474 996.01 105.283 991.017 105.283C985.749 105.283 981.557 106.451 978.442 108.787C975.327 111.078 973.265 113.964 972.257 117.446L945.183 115.247C946.557 108.833 949.26 103.29 953.291 98.6173C957.323 93.8987 962.522 90.2796 968.89 87.76C975.304 85.1946 982.725 83.9119 991.154 83.9119C997.018 83.9119 1002.63 84.599 1007.99 85.9734C1013.4 87.3477 1018.18 89.4779 1022.35 92.364C1026.57 95.2501 1029.89 98.9609 1032.32 103.496C1034.74 107.986 1035.96 113.368 1035.96 119.645V190.835H1008.2V176.199H1007.37C1005.68 179.497 1003.41 182.406 1000.57 184.926C997.728 187.399 994.315 189.346 990.33 190.767C986.344 192.141 981.74 192.828 976.518 192.828ZM984.901 172.625C989.207 172.625 993.01 171.778 996.308 170.083C999.606 168.342 1002.19 166.006 1004.07 163.074C1005.95 160.142 1006.89 156.82 1006.89 153.11V141.909C1005.97 142.504 1004.71 143.054 1003.11 143.558C1001.55 144.016 999.79 144.451 997.82 144.864C995.85 145.23 993.88 145.574 991.91 145.894C989.94 146.169 988.154 146.421 986.55 146.65C983.114 147.154 980.114 147.956 977.548 149.055C974.983 150.155 972.99 151.644 971.57 153.522C970.15 155.354 969.44 157.645 969.44 160.394C969.44 164.379 970.883 167.426 973.769 169.533C976.701 171.595 980.412 172.625 984.901 172.625Z" fill="black"/>
<path d="M32.4513 205.87C39.3051 182.501 61.6126 130.135 96.0131 107.621" stroke="black" stroke-width="22.0727" stroke-linecap="round"/>
<path d="M173.717 205.87C160.713 179.514 126.967 122.964 96.0129 107.621" stroke="black" stroke-width="22.0727" stroke-linecap="round"/>
<path d="M172.245 54.2366C161.605 41.8714 132.878 15.8916 103.084 10.8935" stroke="black" stroke-width="19.1297" stroke-linecap="round"/>
<path d="M173.86 205.844C177.787 177.974 177.735 99.292 101.612 11.7641" stroke="black" stroke-width="22.0727" stroke-linecap="round"/>
<path d="M97.4824 162.004C104.481 160.715 111.199 165.341 112.488 172.333C113.777 179.325 109.15 186.039 102.152 187.328C95.1535 188.617 88.4349 183.992 87.1454 177C85.8561 170.007 90.484 163.293 97.4824 162.004Z" fill="black" stroke="black" stroke-width="1.47152"/>
</svg>
